<mxfile host="app.diagrams.net" modified="2020-07-29T09:45:41.439Z" agent="5.0 (Macintosh; Intel Mac OS X 10_15_4) AppleWebKit/537.36 (KHTML, like Gecko) Chrome/84.0.4147.89 Safari/537.36" etag="eGvRo85JBAFA4tLDamtJ" version="13.5.4" type="github">
  <diagram id="C5RBs43oDa-KdzZeNtuy" name="Page-1">
    <mxGraphModel dx="946" dy="565" grid="1" gridSize="10" guides="1" tooltips="1" connect="1" arrows="1" fold="1" page="1" pageScale="1" pageWidth="827" pageHeight="1169" math="0" shadow="0">
      <root>
        <mxCell id="WIyWlLk6GJQsqaUBKTNV-0" />
        <mxCell id="WIyWlLk6GJQsqaUBKTNV-1" parent="WIyWlLk6GJQsqaUBKTNV-0" />
        <mxCell id="sZHCv27Uya5_FdBM3U69-12" style="edgeStyle=orthogonalEdgeStyle;rounded=0;orthogonalLoop=1;jettySize=auto;html=1;exitX=0.5;exitY=1;exitDx=0;exitDy=0;shadow=0;labelBackgroundColor=none;endArrow=block;endFill=0;endSize=8;strokeWidth=1;" edge="1" parent="WIyWlLk6GJQsqaUBKTNV-1" source="sZHCv27Uya5_FdBM3U69-5" target="sZHCv27Uya5_FdBM3U69-10">
          <mxGeometry relative="1" as="geometry" />
        </mxCell>
        <mxCell id="sZHCv27Uya5_FdBM3U69-5" value="" style="rounded=0;whiteSpace=wrap;html=1;fillColor=none;" vertex="1" parent="WIyWlLk6GJQsqaUBKTNV-1">
          <mxGeometry x="270" y="10" width="180" height="77" as="geometry" />
        </mxCell>
        <mxCell id="sZHCv27Uya5_FdBM3U69-6" value="DEM数据" style="rounded=1;whiteSpace=wrap;html=1;gradientColor=none;fontColor=#333333;" vertex="1" parent="WIyWlLk6GJQsqaUBKTNV-1">
          <mxGeometry x="310" y="38.5" width="100" height="40" as="geometry" />
        </mxCell>
        <mxCell id="sZHCv27Uya5_FdBM3U69-7" value="输入信息" style="text;html=1;strokeColor=none;fillColor=none;align=center;verticalAlign=middle;whiteSpace=wrap;rounded=0;fontColor=#333333;" vertex="1" parent="WIyWlLk6GJQsqaUBKTNV-1">
          <mxGeometry x="270" y="10" width="84" height="20" as="geometry" />
        </mxCell>
        <mxCell id="sZHCv27Uya5_FdBM3U69-13" value="" style="edgeStyle=orthogonalEdgeStyle;rounded=0;orthogonalLoop=1;jettySize=auto;html=1;shadow=0;labelBackgroundColor=none;endArrow=block;endFill=0;endSize=8;strokeWidth=1;" edge="1" parent="WIyWlLk6GJQsqaUBKTNV-1" source="sZHCv27Uya5_FdBM3U69-10" target="sZHCv27Uya5_FdBM3U69-11">
          <mxGeometry relative="1" as="geometry" />
        </mxCell>
        <mxCell id="sZHCv27Uya5_FdBM3U69-10" value="坡向分析" style="shape=process;whiteSpace=wrap;html=1;backgroundOutline=1;" vertex="1" parent="WIyWlLk6GJQsqaUBKTNV-1">
          <mxGeometry x="300" y="150" width="120" height="60" as="geometry" />
        </mxCell>
        <mxCell id="sZHCv27Uya5_FdBM3U69-11" value="坡向结果" style="rounded=1;whiteSpace=wrap;html=1;fontSize=12;glass=0;strokeWidth=1;shadow=0;" vertex="1" parent="WIyWlLk6GJQsqaUBKTNV-1">
          <mxGeometry x="300" y="270" width="120" height="40" as="geometry" />
        </mxCell>
      </root>
    </mxGraphModel>
  </diagram>
</mxfile>
